<svg width="24" height="23" viewBox="0 0 24 23" fill="none" xmlns="http://www.w3.org/2000/svg">
<path d="M13.9955 1.75218L22.2763 7.12803C22.5689 7.31799 22.7152 7.41297 22.8212 7.53966C22.9151 7.65181 22.9856 7.78153 23.0286 7.92122C23.0771 8.07903 23.0771 8.25331 23.0771 8.60186V16.6567C23.0771 18.5026 23.0771 19.4255 22.7175 20.1306C22.4011 20.7507 21.8963 21.255 21.2753 21.5709C20.5694 21.9302 19.6453 21.9302 17.7971 21.9302H6.35715C4.50898 21.9302 3.58489 21.9302 2.87898 21.5709C2.25804 21.255 1.75321 20.7507 1.43683 20.1306C1.07715 19.4255 1.07715 18.5026 1.07715 16.6567V8.60186C1.07715 8.25331 1.07715 8.07903 1.12574 7.92122C1.16875 7.78153 1.23923 7.65181 1.33306 7.53966C1.43906 7.41297 1.58536 7.31799 1.87797 7.12803L10.1588 1.75218M13.9955 1.75218C13.3011 1.3014 12.954 1.07601 12.5799 0.988314C12.2492 0.910796 11.9051 0.910796 11.5744 0.988314C11.2003 1.07601 10.8532 1.3014 10.1588 1.75218M13.9955 1.75218L20.8069 6.17409C21.5635 6.66529 21.9419 6.91089 22.0729 7.22235C22.1874 7.49454 22.1874 7.8013 22.0729 8.07349C21.9419 8.38495 21.5635 8.63055 20.8069 9.12175L13.9955 13.5437C13.3011 13.9944 12.954 14.2198 12.5799 14.3075C12.2492 14.385 11.9051 14.385 11.5744 14.3075C11.2003 14.2198 10.8532 13.9944 10.1588 13.5437L3.3474 9.12175C2.59076 8.63055 2.21245 8.38495 2.08142 8.07349C1.96691 7.8013 1.96691 7.49454 2.08142 7.22235C2.21245 6.91089 2.59076 6.66529 3.3474 6.17409L10.1588 1.75218M22.5271 19.7329L15.22 13.1411M8.93425 13.1411L1.62715 19.7329" stroke="#1A1A1A" stroke-width="1.5" stroke-linecap="round" stroke-linejoin="round"/>
</svg>
