<svg width="24" height="19" viewBox="0 0 24 19" fill="none" xmlns="http://www.w3.org/2000/svg">
<path d="M22.4302 15.8052L15.1231 9.43018M8.83737 9.43018L1.53026 15.8052M1.10519 4.26709L9.96164 10.1903C10.6889 10.6821 11.0526 10.928 11.4481 11.0232C11.7975 11.1073 12.1629 11.1073 12.5123 11.0232C12.9079 10.928 13.2715 10.6821 13.9988 10.1903L22.6205 4.26709M6.26022 17.9302H17.7002C19.5484 17.9302 20.4725 17.9302 21.1784 17.5828C21.7993 17.2772 22.3042 16.7895 22.6205 16.1898C22.9802 15.5079 22.9802 14.6153 22.9802 12.8302V6.03018C22.9802 4.24501 22.9802 3.35242 22.6205 2.67058C22.3042 2.07081 21.7993 1.58319 21.1784 1.27759C20.4725 0.930176 19.5484 0.930176 17.7002 0.930176H6.26022C4.41205 0.930176 3.48796 0.930176 2.78206 1.27759C2.16112 1.58319 1.65629 2.07081 1.3399 2.67058C0.980225 3.35242 0.980225 4.24501 0.980225 6.03018V12.8302C0.980225 14.6153 0.980225 15.5079 1.3399 16.1898C1.65629 16.7895 2.16112 17.2772 2.78206 17.5828C3.48796 17.9302 4.41205 17.9302 6.26022 17.9302Z" stroke="#28AC62" stroke-width="1.5" stroke-linecap="round" stroke-linejoin="round"/>
</svg>
